<svg width="1920" height="1080" viewBox="0 0 1920 1080" fill="none" xmlns="http://www.w3.org/2000/svg">
  <defs>
    <linearGradient id="bg" x1="154" y1="72" x2="1795" y2="1006" gradientUnits="userSpaceOnUse">
      <stop stop-color="#2D3345"/>
      <stop offset="0.46" stop-color="#3C4746"/>
      <stop offset="1" stop-color="#5A4A42"/>
    </linearGradient>
    <radialGradient id="veilA" cx="0" cy="0" r="1" gradientUnits="userSpaceOnUse" gradientTransform="translate(466 326) rotate(32.6) scale(756 460)">
      <stop stop-color="#FDE3C0" stop-opacity="0.58"/>
      <stop offset="1" stop-color="#FDE3C0" stop-opacity="0"/>
    </radialGradient>
    <radialGradient id="veilB" cx="0" cy="0" r="1" gradientUnits="userSpaceOnUse" gradientTransform="translate(1498 754) rotate(-18.6) scale(708 484)">
      <stop stop-color="#C6C9FF" stop-opacity="0.42"/>
      <stop offset="1" stop-color="#C6C9FF" stop-opacity="0"/>
    </radialGradient>
    <filter id="blurM" x="-200" y="-200" width="2320" height="1480" filterUnits="userSpaceOnUse" color-interpolation-filters="sRGB">
      <feGaussianBlur stdDeviation="42"/>
    </filter>
  </defs>
  <rect width="1920" height="1080" fill="url(#bg)"/>
  <g filter="url(#blurM)" opacity="0.68">
    <path d="M112 790C288 624 477 598 680 704C883 810 1020 832 1276 708C1504 598 1705 607 1835 738V1110H112V790Z" fill="#1F2433"/>
    <path d="M-44 481C230 356 442 378 610 514C778 650 1000 672 1268 526C1518 390 1779 400 1970 550V804H-44V481Z" fill="#4F5F63"/>
    <path d="M194 210C385 72 621 62 876 160C1131 258 1393 286 1705 164V412H194V210Z" fill="#AA9A84" fill-opacity="0.45"/>
  </g>
  <rect width="1920" height="1080" fill="url(#veilA)"/>
  <rect width="1920" height="1080" fill="url(#veilB)"/>
</svg>
